# xmcd
#
# Track frame offsets: 
#        150
#        14889
#        30672
#        48347
#        68638
#        83532
#        104030
#        117860
#        138783
#        152663
#        169313
#        192946
#        210209
#        230940
#        258357
#        276809
#        294321
#        307754
#        329796
#        347664
#
# Disc length: 4865 seconds
#
# Revision: 4
# Processed by: cddbd v1.5.2PL0 Copyright (c) Steve Scherf et al.
# Submitted via: ExactAudioCopy v0.99pb5
#
DISCID=2012ff14
DTITLE=Various Artist - Sounds Like Nashville - CD 1
DYEAR=2015
DGENRE=Country
TTITLE0=Rosanne Cash - A feather's not a bird
TTITLE1=Robert Plant and Alison Krauss - Gone gone gone (done moved on)
TTITLE2=Amos Lee - Windows are rolled down
TTITLE3=Lucinda Williams - Copenhagen
TTITLE4=Kacey Musgraves - Follow your arrow
TTITLE5=Sugarland - Already gone
TTITLE6=Robert Earl Keen - I gotta go
TTITLE7=Secret Sisters - Iuka
TTITLE8=Broken Circle Breakdown Bluegrass Band - If I needed you
TTITLE9=Shires - Nashville grey skies
TTITLE10=Shovels and Rope - Shank Hill St.
TTITLE11=Band Perry - All your life
TTITLE12=Ryan Adams and The Cardinals - Down in a hole
TTITLE13=Mary Gauthier - Can't find the way
TTITLE14=Shooter Jennings - Gone to Carolina
TTITLE15=Tristan Prettyman - Say anything
TTITLE16=Whiskeytown - Jacksonville skyline
TTITLE17=Wallek Bros. - Bitter harvest
TTITLE18=Jennifer Nettles - That girl
TTITLE19=Colbie Caillat feat. Gavin DeGraw - We both know  
EXTD=
EXTT0=
EXTT1=
EXTT2=
EXTT3=
EXTT4=
EXTT5=
EXTT6=
EXTT7=
EXTT8=
EXTT9=
EXTT10=
EXTT11=
EXTT12=
EXTT13=
EXTT14=
EXTT15=
EXTT16=
EXTT17=
EXTT18=
EXTT19=
PLAYORDER=
